<svg id="Layer_1" data-name="Layer 1" xmlns="http://www.w3.org/2000/svg" viewBox="0 0 147.38 145.82"><defs><style>.cls-1{opacity:0.45;}.cls-1,.cls-2,.cls-3{isolation:isolate;}.cls-2{opacity:0.6;}.cls-3{opacity:0.8;}.cls-4{fill:none;stroke:#fff;stroke-miterlimit:10;stroke-width:0.75px;}.cls-5{fill:#343434;}.cls-6{fill:#8c8c8c;}.cls-7{fill:#3c3c3b;}.cls-8{fill:#141414;}.cls-9{fill:#393939;}.cls-10{fill:#5e464d;}.cls-11{fill:#e4a663;}.cls-12{fill:#fff;}</style></defs><title>logo</title><g id="Page-1"><g id="solidity"><g id="Group"><path id="Shape" class="cls-1" d="M43.73,82.63,36.74,95h-14l7-12.41h14"/><path id="Shape-2" data-name="Shape" class="cls-2" d="M36.74,95h14l-7-12.41h-14Z"/><path id="Shape-3" data-name="Shape" class="cls-3" d="M29.76,107.45l7-12.41-7-12.41L22.78,95Z"/><path id="Shape-4" data-name="Shape" class="cls-1" d="M29.83,126.08l7-12.42h14l-7,12.42h-14"/><path id="Shape-5" data-name="Shape" class="cls-2" d="M36.82,113.66h-14l7,12.42h14Z"/><path id="Shape-6" data-name="Shape" class="cls-3" d="M43.8,101.25l-7,12.41,7,12.42,7-12.42Z"/></g></g></g><path class="cls-4" d="M71.78,121.93a7.67,7.67,0,0,1-3.46,6L39.54,144.54a7.69,7.69,0,0,1-6.93,0L3.84,127.93a7.64,7.64,0,0,1-3.46-6V88.7a7.7,7.7,0,0,1,3.46-6L32.62,66.09a7.69,7.69,0,0,1,6.93,0L68.32,82.7a7.68,7.68,0,0,1,3.47,6Z"/><path class="cls-4" d="M109.08,57a7.7,7.7,0,0,1-3.46,6L76.84,79.66a7.69,7.69,0,0,1-6.93,0L41.14,63a7.68,7.68,0,0,1-3.47-6V23.81a7.68,7.68,0,0,1,3.47-6L69.92,1.2a7.67,7.67,0,0,1,6.92,0l28.78,16.62a7.67,7.67,0,0,1,3.46,6Z"/><path class="cls-4" d="M147,122a7.68,7.68,0,0,1-3.47,6l-28.78,16.62a7.67,7.67,0,0,1-6.92,0L79.06,128a7.67,7.67,0,0,1-3.46-6V88.77a7.7,7.7,0,0,1,3.46-6l28.78-16.61a7.69,7.69,0,0,1,6.93,0l28.77,16.62a7.68,7.68,0,0,1,3.47,6Z"/><polygon class="cls-5" points="73.03 16.2 72.71 17.29 72.71 48.98 73.03 49.3 87.74 40.61 73.03 16.2"/><polygon class="cls-6" points="73.03 16.2 58.32 40.61 73.03 49.3 73.03 33.92 73.03 16.2"/><polygon class="cls-7" points="73.03 52.09 72.85 52.31 72.85 63.6 73.03 64.13 87.75 43.4 73.03 52.09"/><polygon class="cls-6" points="73.03 64.13 73.03 52.09 58.32 43.4 73.03 64.13"/><polygon class="cls-8" points="73.03 49.3 87.74 40.61 73.03 33.92 73.03 49.3"/><polygon class="cls-9" points="58.32 40.61 73.03 49.3 73.03 33.92 58.32 40.61"/><path class="cls-10" d="M128.28,111.47a3.84,3.84,0,0,1-1.73,3l-13,7.53a3.83,3.83,0,0,1-3.46,0l-13-7.51a3.8,3.8,0,0,1-1.74-3v-15a3.85,3.85,0,0,1,1.73-3l13-7.53a3.85,3.85,0,0,1,3.47,0l13,7.5a3.83,3.83,0,0,1,1.74,3Z"/><path class="cls-11" d="M128.29,103.72h0c-.51.08-1.69-.34-2.3.33a3.31,3.31,0,0,0-.74,1.1,18.79,18.79,0,0,0,0,5.32.5.5,0,0,1-.47.67.74.74,0,0,1-.6-.45c0-.26,0-.32.15-.92a7.27,7.27,0,0,0-.09-3.75,3.88,3.88,0,0,0-.63-1.16,3.4,3.4,0,0,0-4.37-1,3.92,3.92,0,0,0-1.16,1c-.56.62-.46.78-.9,1.25a2.63,2.63,0,0,1-2.77.71,3.56,3.56,0,0,0-1.42-.09,2.07,2.07,0,0,0-1.08.63,5,5,0,0,0-.53,1.07c-.25.56-.65.82-1,.61a.62.62,0,0,1-.27-.47,20.09,20.09,0,0,0-.34-2.37,5.59,5.59,0,0,0-.89-2.5,4.4,4.4,0,0,0-2.59-1.52,6,6,0,0,0-2.5.09,6.84,6.84,0,0,1-1.79.36,3.21,3.21,0,0,1-1.25-.18c-.59-.24-.8-.62-1.6-1.61a15.45,15.45,0,0,0-1.43-1.61A7.73,7.73,0,0,0,95.29,98h0l0-2.61c0-1.74.87-2.61,2.61-3.48l11.33-6.34a5.16,5.16,0,0,1,5.17,0l11.77,6.78a4.3,4.3,0,0,1,2.14,3.7Z"/><path class="cls-11" d="M110.46,108.82"/><path class="cls-12" d="M96.7,95.06,109.81,102a4.16,4.16,0,0,0,3.91,0l12.85-6.9-13.5,6.11a3.21,3.21,0,0,1-2.61,0Z"/><path class="cls-12" d="M108.08,87.27l3-1.74a1.46,1.46,0,0,1,1.32,0l1.82,1s0,0,0,0L112.32,86a1.71,1.71,0,0,0-1,0l-3.18,1.31S108.06,87.28,108.08,87.27Z"/></svg>